<svg xmlns="http://www.w3.org/2000/svg" version="1.0" width="150.000000pt" height="150.000000pt" viewBox="0 0 150.000000 150.000000" preserveAspectRatio="xMidYMid meet" transform="matrix(1, 0, 0, 1, 0, 0)">
<metadata fill="#31a8e0">
Created by potrace 1.16, written by Peter Selinger 2001-2019
</metadata>
<g transform="translate(0.000000,150.000000) scale(0.100000,-0.100000)" fill="#31a8e0" stroke="none">
<path d="M989 1176 c-124 -102 -244 -249 -295 -361 -20 -42 -26 -74 -26 -119 0 -170 132 -285 312 -273 185 13 287 97 298 245 6 92 -6 127 -94 277 -43 72 -89 165 -104 207 l-27 77 -64 -53z m147 -241 c34 -71 66 -151 69 -177 17 -118 -71 -249 -189 -283 -70 -20 -136 -16 -194 14 -49 25 -107 90 -93 104 6 6 21 -2 44 -27 44 -46 92 -66 162 -66 67 0 118 20 163 63 92 88 96 182 15 372 -28 66 -54 134 -57 150 -6 29 -6 29 5 5 6 -14 40 -83 75 -155z" fill="#31a8e0"/>
<path d="M395 883 c-34 -9 -46 -25 -81 -101 -19 -41 -47 -89 -63 -107 -36 -42 -45 -68 -31 -94 6 -11 8 -38 4 -60 -5 -34 -3 -41 16 -51 25 -13 50 -7 50 13 0 7 14 26 31 43 26 25 38 29 84 29 46 0 58 -4 84 -29 16 -16 33 -42 36 -57 l7 -29 111 0 111 0 -30 33 c-17 17 -45 52 -62 76 l-32 45 0 137 c0 100 -3 140 -12 146 -15 9 -194 14 -223 6z m99 -42 c21 -8 26 -19 32 -67 8 -70 1 -76 -88 -72 -90 5 -106 19 -82 77 26 65 73 86 138 62z" fill="#31a8e0"/>
<path d="M375 521 c-50 -21 -73 -76 -50 -120 24 -48 79 -66 126 -41 27 15 51 65 43 94 -12 49 -76 85 -119 67z" fill="#31a8e0"/>
</g>
</svg>